# xmcd
#
# Track frame offsets:
#	11545
#	27551
#	44258
#	62982
#	81213
#	97555
#	115924
#	131287
#	145784
#	160363
#	173803
#	194382
#
# Disc length: 2853 seconds
#
# Revision: 7
# Processed by: cddbd v1.5.2PL0 Copyright (c) Steve Scherf et al.
# Submitted via: audiograbber 1.83.01
#
DISCID=a30a8c0c
DTITLE=Tokio Hotel - Zimmer 483
DYEAR=2007
DGENRE=Pop
TTITLE0=Übers Ende Der Welt
TTITLE1=Totgeliebt
TTITLE2=Spring Nicht
TTITLE3=Heilig
TTITLE4=Wo Sind Eure Hände?
TTITLE5=Stich Ins Glück
TTITLE6=Ich Brech Aus
TTITLE7=Reden
TTITLE8=Nach Dir Kommt Nichts
TTITLE9=Wir Sterben Niemals Aus
TTITLE10=Vergessene Kinder
TTITLE11=An Deiner Seite (Ich Bin Da)
EXTD=YEAR: 2007
EXTT0=
EXTT1=
EXTT2=
EXTT3=
EXTT4=
EXTT5=
EXTT6=
EXTT7=
EXTT8=
EXTT9=
EXTT10=
EXTT11=
PLAYORDER=
